<svg width="134" height="205" viewBox="0 0 134 205" fill="none" xmlns="http://www.w3.org/2000/svg">
<path d="M92.17 140.05C98.3935 104.183 134.916 95.1756 134.097 95.0118C130.002 94.0292 125.908 94.0292 121.977 94.8481C122.96 82.8924 119.357 70.773 114.771 59.8C112.806 55.0505 110.513 50.6285 107.893 46.3704C105.436 41.2933 102.324 36.38 98.3935 31.7943C93.3165 25.7346 83.3261 20.9851 75.7924 25.5708C67.9312 30.4841 65.3108 39.9831 63.8368 48.6632C62.8542 54.5592 62.0353 60.4551 61.5439 66.351C61.3802 68.3163 61.3802 70.1179 61.5439 72.0832C60.8888 84.6939 62.6904 97.796 67.4399 109.424C71.6981 119.906 80.3782 128.75 91.6787 129.241C91.0236 133.008 91.0236 136.938 92.17 140.05Z" fill="black"/>
<path d="M68.7499 105.658C61.5438 88.2979 62.5264 67.4983 67.6035 49.6468C68.7499 45.3886 71.3703 39.984 74.8096 37.036C88.5668 25.7355 106.255 47.6814 110.84 58.4907C115.59 69.2999 120.012 82.7295 119.193 95.3402C112.478 97.3055 106.255 101.564 101.341 106.968C96.9194 111.882 93.6439 117.941 92.1699 124.329C92.0061 124.82 92.0061 125.311 91.8423 125.803C80.378 125.966 72.6806 115.157 68.7499 105.658Z" fill="white"/>
<path d="M79.7252 189.676C73.3379 194.262 63.5113 199.666 55.4863 199.502C51.8832 199.502 46.6424 196.882 45.3322 193.279C42.548 186.237 42.3842 178.048 42.2205 170.678C42.0567 162.653 43.0393 154.464 45.8235 146.767C46.4786 144.801 47.4613 143 48.4439 141.526C49.4266 140.543 50.4093 139.397 51.2281 138.25C53.3572 136.285 55.8139 134.811 58.9256 133.828C65.3129 132.027 70.8812 134.483 76.941 135.63C77.1047 135.63 77.4323 135.302 77.1047 135.139C73.8292 133.501 71.5364 131.535 67.9333 130.553C65.1491 129.734 62.2011 129.898 59.2532 130.225C58.7618 130.225 58.2705 130.389 57.7792 130.553C58.7618 126.295 59.2532 121.381 58.9256 116.959C61.0547 105.986 59.5807 94.1945 56.9603 83.5491C55.8139 78.6358 54.1761 73.8863 52.2108 69.1368C50.573 63.7322 48.2802 58.4914 45.1684 53.2505C41.074 46.5357 32.0663 40.1485 23.8776 43.424C15.3612 47.0271 11.103 55.871 8.31884 64.2235C6.35353 69.7919 4.55199 75.5241 3.24178 81.2562C2.75046 83.0578 2.58668 85.0231 2.25913 86.8246C-0.525063 99.2716 -0.852615 112.374 1.93158 124.493C2.25913 125.803 2.58668 127.113 3.07801 128.26C3.40556 128.915 3.56934 129.57 3.89689 130.225H4.06066C4.22444 130.717 4.38822 131.044 4.38822 131.535C5.8622 134.647 7.82751 137.595 10.2841 140.216C17.3265 147.422 29.2822 151.189 39.1087 147.258C39.2725 147.258 39.4363 147.258 39.4363 147.258C40.0914 146.93 40.7465 146.603 41.4016 146.112C39.2725 151.189 37.9623 156.921 36.8159 161.998C35.0143 170.514 35.5056 179.849 36.8159 188.366C37.7985 195.081 40.2551 201.468 47.1337 203.761C54.0123 205.89 62.2011 202.287 68.5884 199.83C69.2435 199.502 70.0624 199.175 70.7175 198.847C75.467 196.391 79.7252 193.279 83.492 189.512C88.8966 184.108 93.8099 177.556 96.2665 170.35C92.3359 178.048 86.6037 184.763 79.7252 189.676Z" fill="black"/>
<path d="M41.8953 140.542C33.7065 146.111 22.0785 146.93 14.381 139.724C10.7779 136.284 8.1575 132.19 6.68352 127.604C6.19219 126.621 5.86464 125.475 5.53709 124.492C5.20953 123.346 4.88198 122.2 4.55443 121.053C0.296255 102.71 4.55443 82.402 12.4157 65.6968C14.2172 61.6025 17.6565 56.6892 21.5871 54.3963C36.9821 45.7162 50.903 70.2826 53.6872 81.7469C57.6178 97.4694 60.402 118.105 50.2479 132.517C48.1188 135.465 45.1709 138.413 41.8953 140.542Z" fill="white"/>
<path d="M108.061 75.6869C107.406 81.2553 103.639 85.3497 99.5449 85.0222C95.4505 84.5308 92.5026 79.7813 93.1577 74.213C93.8128 68.6446 97.5796 64.5502 101.674 64.8777C105.768 65.2053 108.716 70.1186 108.061 75.6869Z" fill="black"/>
<path d="M106.587 70.7741C106.423 72.2481 105.44 73.3945 104.294 73.2308C103.147 73.067 102.492 71.7568 102.492 70.2828C102.656 68.8088 103.639 67.6624 104.785 67.8261C105.931 67.9899 106.75 69.3001 106.587 70.7741Z" fill="white"/>
<path d="M51.3933 98.6166C50.7382 104.185 46.9714 108.279 42.877 107.952C38.7826 107.461 35.8346 102.711 36.4897 97.1426C37.1448 91.5743 40.9117 87.4799 45.0061 87.8074C49.2642 88.135 52.0484 93.0482 51.3933 98.6166Z" fill="black"/>
<path d="M49.9186 93.7038C49.7548 95.1778 48.7722 96.3242 47.6258 96.1604C46.4793 95.9967 45.8242 94.6865 45.8242 93.2125C45.988 91.7385 46.9706 90.5921 48.1171 90.7558C49.2635 90.9196 50.0824 92.2298 49.9186 93.7038Z" fill="white"/>
<path d="M43.8582 34.7431C42.0567 27.8645 37.7985 20.167 29.6097 21.3135C22.8949 22.1323 20.4383 30.8125 21.2571 36.2171C21.4209 37.036 22.4036 36.3808 22.5673 35.8895C23.3862 33.9242 24.2051 32.2864 25.6791 30.6487C27.8082 28.3558 29.2822 28.192 31.7388 30.3211C34.523 32.614 37.1434 35.0706 40.0914 37.1997C41.7291 38.5099 44.3496 36.5446 43.8582 34.7431Z" fill="black"/>
<path d="M82.5086 1.33271C78.4142 -1.77903 73.0096 1.16894 69.5703 3.95313C62.528 9.84906 54.9943 21.6409 58.2698 31.1399C59.0887 33.4328 62.0366 31.3037 62.8555 30.1573C66.2948 25.0802 68.4239 19.1843 72.3545 14.4348C73.501 13.1246 75.3025 10.1766 76.9403 10.1766C80.3795 10.0128 84.8015 11.323 87.4219 13.4521C87.9132 13.7797 88.4046 13.1246 88.4046 12.797C88.2408 8.37508 86.1117 3.95313 82.5086 1.33271Z" fill="black"/>
</svg>
