<svg width="303" height="236" viewBox="0 0 303 236" fill="none" xmlns="http://www.w3.org/2000/svg">
<g opacity="0.4" clip-path="url(#clip0_1021_18428)">
<path d="M28.2186 231.866C2.48781 231.866 10.235 204.277 10.235 204.277C10.235 204.239 10.2736 204.2 10.3122 204.2H22.3623L22.179 203.85C21.7545 203.055 21.5326 202.211 21.5326 201.327C21.5326 198.387 23.906 196 26.8293 196C27.4757 196 28.1124 196.126 28.7299 196.359L29.0097 196.466L29.0483 196.175C29.7622 191.41 33.9011 187.81 38.6961 187.81C40.7993 187.81 42.8929 188.518 44.5813 189.809L44.9575 190.09V189.625C45.083 178.62 54.094 169.654 65.0347 169.654C72.8397 169.654 79.9888 174.244 83.2401 181.347L83.4041 181.716L83.6453 181.386C86.3467 177.621 90.7172 175.369 95.3192 175.369C103.259 175.369 109.723 181.871 109.723 189.857C109.723 192.021 109.231 194.205 108.295 196.155L108.074 196.611L108.566 196.485C130.235 190.915 145.372 171.303 145.372 148.81V101.435C145.372 101.396 145.401 101.357 145.449 101.357H179.207C179.246 101.357 179.284 101.387 179.284 101.435V148.81C179.284 175.942 201.233 198.028 228.218 198.028C235.685 198.028 242.863 196.378 249.54 193.118L249.762 193.011L249.646 192.788C248.864 191.362 248.449 189.77 248.449 188.169C248.449 182.871 252.733 178.562 258.001 178.562C260.249 178.562 262.439 179.377 264.166 180.842L264.397 181.046L264.532 180.775C267.629 174.302 274.016 170.285 281.185 170.285C291.199 170.285 299.322 178.174 299.679 188.237L299.689 188.509L299.959 188.47C300.49 188.373 300.963 188.334 301.406 188.334C306.037 188.334 309.81 192.128 309.81 196.786C309.81 199.6 308.42 202.22 306.105 203.783L305.468 204.219H315.695C315.733 204.219 315.772 204.258 315.772 204.297C315.772 204.297 319.66 231.885 291.884 231.885C291.884 231.866 53.959 231.866 28.2186 231.866Z" fill="white"/>
<path d="M274.203 202.493H271.058C270.488 202.493 270.016 202.027 270.016 201.444C270.016 200.862 270.479 200.396 271.058 200.396H274.203C274.772 200.396 275.245 200.862 275.245 201.444C275.245 202.027 274.782 202.493 274.203 202.493Z" fill="#BAC9D6"/>
<path d="M262.393 228.518H252.089C251.52 228.518 251.047 228.052 251.047 227.47C251.047 226.888 251.51 226.432 252.089 226.432H262.393C262.972 226.432 263.435 226.897 263.435 227.47C263.435 228.043 262.962 228.518 262.393 228.518Z" fill="#BAC9D6"/>
<path d="M301.917 228.518H299.534C298.965 228.518 298.492 228.052 298.492 227.47C298.492 226.888 298.955 226.432 299.534 226.432H301.917C302.486 226.432 302.959 226.897 302.959 227.47C302.959 228.043 302.486 228.518 301.917 228.518Z" fill="#BAC9D6"/>
<path d="M274.203 213.565H253.132C252.563 213.565 252.09 213.099 252.09 212.517C252.09 211.935 252.553 211.469 253.132 211.469H274.203C274.772 211.469 275.245 211.935 275.245 212.517C275.245 213.099 274.782 213.565 274.203 213.565Z" fill="#BAC9D6"/>
<path d="M283.201 213.565H279.593C279.024 213.565 278.551 213.099 278.551 212.517C278.551 211.935 279.014 211.469 279.593 211.469H283.201C283.77 211.469 284.243 211.935 284.243 212.517C284.243 213.099 283.78 213.565 283.201 213.565Z" fill="#BAC9D6"/>
<path d="M290.863 213.565H289.155C288.576 213.565 288.113 213.099 288.113 212.517C288.113 211.935 288.576 211.469 289.155 211.469H290.863C291.432 211.469 291.905 211.935 291.905 212.517C291.905 213.099 291.442 213.565 290.863 213.565Z" fill="#BAC9D6"/>
<path d="M247.843 213.565H212.647C212.078 213.565 211.605 213.099 211.605 212.517C211.605 211.935 212.069 211.469 212.647 211.469H247.843C248.412 211.469 248.885 211.935 248.885 212.517C248.885 213.099 248.412 213.565 247.843 213.565Z" fill="#BAC9D6"/>
<path d="M254.346 192.739C254.047 192.739 253.747 192.613 253.545 192.36C252.609 191.225 252.098 189.789 252.098 188.314C252.098 187.731 252.561 187.266 253.14 187.266C253.709 187.266 254.182 187.731 254.182 188.314C254.182 189.303 254.529 190.264 255.156 191.031C255.523 191.477 255.455 192.137 255.011 192.506C254.809 192.661 254.577 192.739 254.346 192.739Z" fill="#BAC9D6"/>
<path d="M262.394 185.84C262.104 185.84 261.824 185.724 261.612 185.491C260.802 184.569 259.644 184.045 258.419 184.045C257.406 184.045 256.431 184.404 255.669 185.064C255.235 185.443 254.579 185.384 254.203 184.948C253.826 184.511 253.884 183.851 254.318 183.473C255.457 182.493 256.914 181.949 258.419 181.949C260.233 181.949 261.969 182.735 263.165 184.103C263.542 184.54 263.503 185.2 263.079 185.578C262.876 185.753 262.635 185.84 262.394 185.84Z" fill="#BAC9D6"/>
<path d="M155.003 143.569C154.424 143.569 153.961 143.103 153.961 142.521V132.778C153.961 132.196 154.424 131.73 155.003 131.73C155.572 131.73 156.035 132.196 156.035 132.778V142.521C156.045 143.103 155.582 143.569 155.003 143.569Z" fill="#BAC9D6"/>
<path d="M162.413 161.046C161.844 161.046 161.371 160.58 161.371 159.998V145.607C161.371 145.034 161.834 144.559 162.413 144.559C162.992 144.559 163.455 145.024 163.455 145.607V159.998C163.445 160.58 162.982 161.046 162.413 161.046Z" fill="#BAC9D6"/>
<path d="M162.479 169.712C161.901 169.712 161.438 169.246 161.438 168.664V165.423C161.438 164.85 161.901 164.375 162.479 164.375C163.058 164.375 163.521 164.841 163.521 165.423V168.664C163.512 169.246 163.049 169.712 162.479 169.712Z" fill="#BAC9D6"/>
<path d="M162.479 178.591C161.901 178.591 161.438 178.125 161.438 177.543V175.456C161.438 174.884 161.901 174.408 162.479 174.408C163.058 174.408 163.521 174.874 163.521 175.456V177.543C163.512 178.125 163.049 178.591 162.479 178.591Z" fill="#BAC9D6"/>
<path d="M226.793 203.704C212.552 203.704 199.209 198.299 189.224 188.479C179.181 178.6 173.652 165.325 173.652 151.089V145.616C173.652 145.044 174.115 144.568 174.694 144.568C175.264 144.568 175.736 145.034 175.736 145.616V151.089C175.736 179.425 198.167 201.618 226.802 201.618C229.156 201.618 231.308 201.531 233.363 201.346C233.932 201.298 234.434 201.725 234.482 202.297C234.53 202.87 234.115 203.374 233.536 203.423C231.424 203.617 229.214 203.704 226.793 203.704Z" fill="#BAC9D6"/>
<path d="M238.841 202.724C238.349 202.724 237.915 202.365 237.819 201.861C237.713 201.298 238.089 200.745 238.658 200.648C240.298 200.347 241.88 199.968 243.376 199.522C243.926 199.357 244.505 199.677 244.669 200.23C244.833 200.783 244.514 201.366 243.964 201.531C242.401 201.996 240.742 202.394 239.034 202.705C238.967 202.714 238.899 202.724 238.841 202.724Z" fill="#BAC9D6"/>
<path d="M247.845 200.076C247.439 200.076 247.054 199.833 246.89 199.435C246.668 198.901 246.918 198.29 247.439 198.067C247.874 197.882 248.308 197.688 248.732 197.485C249.253 197.242 249.871 197.465 250.112 197.989C250.353 198.513 250.131 199.134 249.61 199.377C249.157 199.59 248.703 199.794 248.24 199.988C248.115 200.046 247.98 200.076 247.845 200.076Z" fill="#BAC9D6"/>
<path d="M118.261 198.455C117.846 198.455 117.451 198.203 117.296 197.795C117.084 197.262 117.345 196.65 117.885 196.447C136.833 188.945 149.086 169.751 149.086 147.548V142.987C149.086 142.415 149.549 141.939 150.128 141.939C150.707 141.939 151.17 142.405 151.17 142.987V147.548C151.17 170.615 138.406 190.576 118.657 198.387C118.512 198.426 118.387 198.455 118.261 198.455Z" fill="#BAC9D6"/>
<path d="M110.447 201.338C109.993 201.338 109.578 201.037 109.453 200.571C109.299 200.018 109.617 199.436 110.167 199.281C111.547 198.892 112.917 198.446 114.219 197.951C114.759 197.757 115.348 198.029 115.55 198.572C115.753 199.116 115.473 199.717 114.933 199.911C113.573 200.416 112.164 200.882 110.726 201.289C110.64 201.318 110.543 201.338 110.447 201.338Z" fill="#BAC9D6"/>
<path d="M104.436 202.675C103.934 202.675 103.49 202.316 103.413 201.802C103.317 201.23 103.703 200.696 104.272 200.599C104.754 200.521 105.237 200.434 105.719 200.347C106.288 200.24 106.829 200.608 106.935 201.181C107.041 201.744 106.674 202.297 106.105 202.404C105.603 202.501 105.102 202.588 104.61 202.666C104.552 202.666 104.494 202.675 104.436 202.675Z" fill="#BAC9D6"/>
<path d="M132.862 227.149H116.663C116.084 227.149 115.621 226.683 115.621 226.101C115.621 225.519 116.084 225.053 116.663 225.053H132.862C133.431 225.053 133.904 225.519 133.904 226.101C133.904 226.683 133.441 227.149 132.862 227.149Z" fill="#BAC9D6"/>
<path d="M111.753 227.149H107.749C107.18 227.149 106.707 226.683 106.707 226.101C106.707 225.519 107.17 225.053 107.749 225.053H111.753C112.322 225.053 112.795 225.519 112.795 226.101C112.785 226.683 112.322 227.149 111.753 227.149Z" fill="#BAC9D6"/>
<path d="M101.795 227.149H99.7881C99.2188 227.149 98.7461 226.683 98.7461 226.101C98.7461 225.519 99.2092 225.053 99.7881 225.053H101.795C102.364 225.053 102.837 225.519 102.837 226.101C102.827 226.683 102.364 227.149 101.795 227.149Z" fill="#BAC9D6"/>
<path d="M24.1084 202.638C23.5391 202.638 23.0664 202.172 23.0664 201.59C23.0664 199.367 24.8609 197.562 27.0703 197.562C27.6105 197.562 28.1412 197.669 28.6332 197.883C29.1638 198.106 29.405 198.717 29.1831 199.251C28.9612 199.785 28.3534 200.027 27.8228 199.804C27.5912 199.707 27.3404 199.659 27.0703 199.659C26.009 199.659 25.1503 200.522 25.1503 201.59C25.1407 202.162 24.6776 202.638 24.1084 202.638Z" fill="#BAC9D6"/>
<path d="M34.4198 203.687C34.1497 203.687 33.8892 203.58 33.6866 203.376C32.8858 202.571 32.278 201.581 31.9114 200.523C31.7184 199.98 32.0078 199.378 32.5578 199.194C33.098 199.01 33.6866 199.301 33.8795 199.844C34.14 200.611 34.5838 201.319 35.1627 201.901C35.5679 202.309 35.5679 202.969 35.1627 203.376C34.9504 203.59 34.6899 203.687 34.4198 203.687Z" fill="#BAC9D6"/>
<path d="M45.0824 197.272C44.6386 197.272 44.2237 196.981 44.0886 196.525C43.4133 194.264 41.3004 192.692 38.956 192.692C36.6212 192.692 34.5759 194.186 33.8523 196.418C33.6786 196.971 33.0901 197.272 32.5402 197.088C31.9903 196.913 31.7008 196.321 31.8745 195.768C32.8779 192.672 35.7143 190.596 38.956 190.596C42.217 190.596 45.1402 192.789 46.0857 195.923C46.2497 196.476 45.941 197.059 45.3911 197.224C45.285 197.253 45.1788 197.272 45.0824 197.272Z" fill="#BAC9D6"/>
<path d="M85.5961 186.491C85.4417 186.491 85.2777 186.452 85.133 186.374C84.6216 186.112 84.419 185.481 84.6699 184.967C86.6573 181.018 90.6226 178.553 95.0316 178.553C95.6008 178.553 96.0736 179.019 96.0736 179.601C96.0736 180.183 95.6105 180.649 95.0316 180.649C91.4137 180.649 88.1624 182.667 86.5319 185.918C86.3389 186.277 85.9723 186.491 85.5961 186.491Z" fill="#BAC9D6"/>
<path d="M105.509 190.003C104.988 190.003 104.544 189.614 104.477 189.081C104.101 185.898 102.171 183.132 99.3249 181.677C98.8135 181.415 98.6109 180.784 98.8714 180.27C99.1319 179.755 99.759 179.551 100.27 179.813C103.744 181.58 106.098 184.957 106.551 188.838C106.619 189.411 106.213 189.935 105.644 190.003C105.586 190.003 105.548 190.003 105.509 190.003Z" fill="#BAC9D6"/>
<path d="M102.799 198.456C102.549 198.456 102.298 198.368 102.095 198.184C101.671 197.796 101.642 197.136 102.037 196.709C102.626 196.069 103.118 195.351 103.513 194.574C103.774 194.06 104.401 193.856 104.912 194.118C105.424 194.38 105.626 195.011 105.366 195.525C104.883 196.467 104.276 197.34 103.571 198.116C103.359 198.339 103.079 198.456 102.799 198.456Z" fill="#BAC9D6"/>
<path d="M228.16 198.425C200.962 198.425 178.84 176.174 178.84 148.819V112.895C178.84 112.72 178.975 112.584 179.149 112.584C179.322 112.584 179.457 112.72 179.457 112.895V148.819C179.457 175.825 201.3 197.794 228.15 197.794C235.694 197.794 242.921 196.106 249.636 192.777C249.79 192.7 249.983 192.768 250.05 192.923C250.128 193.078 250.06 193.263 249.906 193.34C243.123 196.717 235.801 198.425 228.16 198.425Z" fill="#00002C"/>
<path d="M103.116 197.969C102.961 197.969 102.826 197.853 102.807 197.697C102.787 197.523 102.903 197.367 103.077 197.348C127.023 194.039 145.084 173.175 145.084 148.828V112.904C145.084 112.73 145.219 112.594 145.392 112.594C145.566 112.594 145.701 112.73 145.701 112.904V148.828C145.701 173.496 127.409 194.621 103.154 197.969C103.144 197.969 103.135 197.969 103.116 197.969Z" fill="#00002C"/>
<path d="M45.7775 195.844C45.6424 195.844 45.517 195.757 45.4784 195.621C44.9381 193.758 44.668 191.826 44.668 189.876C44.668 178.61 53.7852 169.439 64.9863 169.439C74.499 169.439 82.6418 175.941 84.7836 185.257C84.8222 185.422 84.7161 185.597 84.5521 185.635C84.3881 185.674 84.2144 185.567 84.1758 185.402C82.1015 176.378 74.2096 170.07 64.9863 170.07C54.1228 170.07 45.2951 178.959 45.2951 189.876C45.2951 191.768 45.5652 193.641 46.0862 195.446C46.1344 195.611 46.038 195.786 45.8739 195.834C45.8354 195.844 45.8064 195.844 45.7775 195.844Z" fill="#00002C"/>
<path d="M298.388 195.737C298.349 195.737 298.311 195.727 298.282 195.718C298.118 195.659 298.041 195.475 298.099 195.31C298.87 193.263 299.256 191.108 299.256 188.896C299.256 178.843 291.133 170.672 281.138 170.672C271.779 170.672 264.032 177.727 263.116 187.072C263.096 187.246 262.951 187.372 262.778 187.353C262.604 187.334 262.479 187.178 262.498 187.013C263.453 177.338 271.461 170.051 281.147 170.051C291.48 170.051 299.883 178.503 299.883 188.896C299.883 191.186 299.478 193.418 298.687 195.533C298.629 195.659 298.513 195.737 298.388 195.737Z" fill="#00002C"/>
<path d="M251.797 195.739C251.73 195.739 251.653 195.71 251.595 195.661C249.405 193.788 248.16 191.062 248.16 188.17C248.16 182.745 252.55 178.33 257.943 178.33C260.403 178.33 262.767 179.262 264.581 180.94C264.706 181.057 264.716 181.251 264.6 181.377C264.484 181.503 264.282 181.513 264.156 181.397C262.458 179.824 260.249 178.951 257.943 178.951C252.888 178.951 248.778 183.085 248.778 188.16C248.778 190.868 249.955 193.42 252 195.176C252.135 195.293 252.145 195.487 252.039 195.613C251.981 195.7 251.884 195.739 251.797 195.739Z" fill="#00002C"/>
<path d="M107.864 197.068C107.816 197.068 107.758 197.058 107.719 197.029C107.565 196.941 107.517 196.757 107.594 196.602C108.703 194.554 109.292 192.225 109.292 189.867C109.292 182.094 103.001 175.767 95.2734 175.767C90.575 175.767 86.2141 178.116 83.6092 182.046C83.5127 182.191 83.3198 182.23 83.1751 182.133C83.0304 182.036 82.9918 181.842 83.0882 181.697C85.8089 177.592 90.3723 175.137 95.2734 175.137C103.349 175.137 109.909 181.745 109.909 189.858C109.909 192.322 109.292 194.748 108.134 196.893C108.076 197.009 107.97 197.068 107.864 197.068Z" fill="#00002C"/>
<path d="M31.5489 204.598H10.2658C10.0921 204.598 9.95703 204.462 9.95703 204.287C9.95703 204.112 10.0921 203.977 10.2658 203.977H31.5489C31.7225 203.977 31.8576 204.112 31.8576 204.287C31.8576 204.462 31.7225 204.598 31.5489 204.598Z" fill="#00002C"/>
<path d="M7.84394 204.598H4.96889C4.79523 204.598 4.66016 204.462 4.66016 204.287C4.66016 204.112 4.79523 203.977 4.96889 203.977H7.84394C8.0176 203.977 8.15267 204.112 8.15267 204.287C8.15267 204.462 8.0176 204.598 7.84394 204.598Z" fill="#00002C"/>
<path d="M1.74626 204.598H0.30873C0.13507 204.598 0 204.462 0 204.287C0 204.112 0.13507 203.977 0.30873 203.977H1.74626C1.91992 203.977 2.05499 204.112 2.05499 204.287C2.05499 204.462 1.91992 204.598 1.74626 204.598Z" fill="#00002C"/>
<path d="M31.5368 204.597C31.45 204.597 31.3728 204.568 31.3053 204.5C29.5783 202.637 28.6328 200.201 28.6328 197.649C28.6328 192.098 33.1191 187.586 38.6376 187.586C41.0399 187.586 43.365 188.45 45.1788 190.031C45.3139 190.148 45.3236 190.342 45.2078 190.478C45.092 190.614 44.899 190.623 44.7736 190.507C43.066 189.022 40.8856 188.207 38.6376 188.207C33.4664 188.207 29.2599 192.438 29.2599 197.639C29.2599 200.026 30.1475 202.307 31.7684 204.063C31.8841 204.189 31.8745 204.383 31.7491 204.5C31.6912 204.568 31.614 204.597 31.5368 204.597Z" fill="#00002C"/>
<path d="M305.027 204.598C304.912 204.598 304.805 204.53 304.748 204.423C304.67 204.268 304.738 204.084 304.892 204.006C307.652 202.628 309.369 199.863 309.369 196.767C309.369 192.323 305.77 188.703 301.351 188.703C300.773 188.703 300.194 188.761 299.625 188.887C299.461 188.926 299.287 188.819 299.258 188.645C299.219 188.47 299.325 188.305 299.499 188.276C300.107 188.14 300.724 188.072 301.351 188.072C306.108 188.072 309.986 191.973 309.986 196.757C309.986 200.086 308.144 203.075 305.162 204.55C305.124 204.588 305.076 204.598 305.027 204.598Z" fill="#00002C"/>
<path d="M22.4521 204.589C22.3556 204.589 22.2495 204.54 22.1916 204.453C21.5741 203.531 21.2461 202.463 21.2461 201.347C21.2461 198.281 23.7256 195.787 26.7743 195.787C27.604 195.787 28.3951 195.971 29.138 196.321C29.2924 196.398 29.3599 196.583 29.2827 196.738C29.2055 196.893 29.0222 196.961 28.8679 196.884C28.2022 196.563 27.4979 196.408 26.7646 196.408C24.0536 196.408 21.8539 198.621 21.8539 201.347C21.8539 202.337 22.1433 203.288 22.6933 204.103C22.7897 204.249 22.7512 204.443 22.6161 204.54C22.5775 204.569 22.51 204.589 22.4521 204.589Z" fill="#00002C"/>
<path d="M79.2079 184.715C78.8027 184.715 78.4168 184.472 78.2528 184.074C75.9662 178.65 70.7082 175.137 64.852 175.137C59.1211 175.137 53.9017 178.543 51.5669 183.812C51.3353 184.336 50.7179 184.579 50.1969 184.336C49.6759 184.104 49.4347 183.483 49.6759 182.959C52.3484 176.942 58.3107 173.051 64.8616 173.051C71.5572 173.051 77.5678 177.059 80.1823 183.259C80.4042 183.793 80.163 184.404 79.6324 184.628C79.4877 184.696 79.343 184.715 79.2079 184.715Z" fill="#BAC9D6"/>
<path d="M51.8773 199.503C51.5397 199.503 51.2116 199.338 51.009 199.037C49.1856 196.291 48.2305 193.089 48.2305 189.77C48.2305 189.101 48.2691 188.431 48.3462 187.771C48.4138 187.199 48.9348 186.791 49.504 186.859C50.0732 186.927 50.4784 187.451 50.4109 188.023C50.3433 188.596 50.3048 189.178 50.3048 189.77C50.3048 192.672 51.1441 195.476 52.736 197.873C53.0544 198.358 52.929 198.999 52.4466 199.319C52.2826 199.455 52.08 199.503 51.8773 199.503Z" fill="#BAC9D6"/>
<path d="M55.8119 203.589C55.6092 203.589 55.397 203.531 55.2137 203.395C54.8857 203.162 54.5673 202.92 54.2586 202.658C53.8148 202.289 53.7569 201.629 54.1235 201.192C54.4901 200.746 55.1461 200.688 55.5803 201.057C55.8504 201.28 56.1302 201.493 56.41 201.697C56.8731 202.027 56.9889 202.687 56.6609 203.153C56.4583 203.434 56.1399 203.589 55.8119 203.589Z" fill="#BAC9D6"/>
<path d="M80.0582 194.264C79.981 194.264 79.9038 194.254 79.8266 194.235C79.267 194.109 78.9197 193.555 79.0451 192.983C79.1995 192.304 79.3056 191.595 79.3539 190.867C79.3925 190.295 79.9038 189.868 80.4634 189.907C81.0326 189.946 81.4667 190.45 81.4185 191.023C81.3606 191.848 81.2352 192.663 81.0615 193.439C80.9651 193.934 80.5309 194.264 80.0582 194.264Z" fill="#BAC9D6"/>
<path d="M34.422 208.528H21.5518C20.9826 208.528 20.5195 208.062 20.5195 207.48C20.5195 206.907 20.9826 206.432 21.5518 206.432H34.422C34.9913 206.432 35.464 206.897 35.464 207.48C35.464 208.062 35.0009 208.528 34.422 208.528Z" fill="#BAC9D6"/>
<path d="M18.2519 208.528H15.6084C15.0391 208.528 14.5664 208.062 14.5664 207.48C14.5664 206.907 15.0295 206.432 15.6084 206.432H18.2519C18.8211 206.432 19.2938 206.897 19.2938 207.48C19.2938 208.062 18.8307 208.528 18.2519 208.528Z" fill="#BAC9D6"/>
<path d="M9.17415 208.528H7.84275C7.27352 208.528 6.80078 208.062 6.80078 207.48C6.80078 206.907 7.26388 206.432 7.84275 206.432H9.17415C9.74337 206.432 10.2161 206.897 10.2161 207.48C10.2065 208.062 9.74337 208.528 9.17415 208.528Z" fill="#BAC9D6"/>
<path d="M150.12 139.533C149.551 139.533 149.078 139.067 149.078 138.495V134.73C149.078 134.157 149.541 133.682 150.12 133.682C150.699 133.682 151.162 134.147 151.162 134.73V138.495C151.152 139.067 150.689 139.533 150.12 139.533Z" fill="#BAC9D6"/>
<path d="M150.112 131.489C149.543 131.489 149.07 131.023 149.07 130.441V128.976C149.07 128.403 149.533 127.928 150.112 127.928C150.691 127.928 151.154 128.394 151.154 128.976V130.441C151.154 131.023 150.691 131.489 150.112 131.489Z" fill="#BAC9D6"/>
<path d="M174.694 142.87C174.125 142.87 173.652 142.404 173.652 141.822V137.31C173.652 136.728 174.115 136.262 174.694 136.262C175.264 136.262 175.736 136.728 175.736 137.31V141.832C175.727 142.404 175.264 142.87 174.694 142.87Z" fill="#BAC9D6"/>
<path d="M174.694 133.827C174.125 133.827 173.652 133.361 173.652 132.779V131.245C173.652 130.663 174.115 130.197 174.694 130.197C175.264 130.197 175.736 130.663 175.736 131.245V132.779C175.727 133.361 175.264 133.827 174.694 133.827Z" fill="#BAC9D6"/>
<path d="M182.324 193.127C182.053 193.127 181.793 193.02 181.581 192.816C176.458 187.605 168.836 174.078 168.836 158.193C168.836 157.62 169.299 157.154 169.878 157.154C170.457 157.154 170.92 157.62 170.92 158.193C170.92 173.457 178.185 186.383 183.066 191.351C183.472 191.759 183.462 192.428 183.057 192.826C182.854 193.03 182.584 193.127 182.324 193.127Z" fill="#BAC9D6"/>
<path d="M138.319 203.248C138.059 203.248 137.789 203.151 137.586 202.947C137.181 202.54 137.171 201.88 137.576 201.472C148.45 190.419 153.958 171.924 153.958 146.499C153.958 145.927 154.422 145.461 155 145.461C155.57 145.461 156.033 145.927 156.033 146.499C156.033 172.496 150.321 191.487 139.053 202.937C138.86 203.141 138.589 203.248 138.319 203.248Z" fill="#BAC9D6"/>
<path d="M169.878 154.836C169.309 154.836 168.836 154.37 168.836 153.788V150.964C168.836 150.392 169.299 149.916 169.878 149.916C170.457 149.916 170.92 150.382 170.92 150.964V153.788C170.91 154.36 170.447 154.836 169.878 154.836Z" fill="#BAC9D6"/>
<path d="M169.878 146.705C169.309 146.705 168.836 146.239 168.836 145.656V143.968C168.836 143.395 169.299 142.93 169.878 142.93C170.457 142.93 170.92 143.395 170.92 143.968V145.656C170.91 146.239 170.447 146.705 169.878 146.705Z" fill="#BAC9D6"/>
<path d="M188.855 198.105C188.681 198.105 188.517 198.066 188.353 197.979C186.713 197.076 185.314 195.815 185.246 195.766C184.822 195.378 184.783 194.718 185.169 194.291C185.555 193.864 186.211 193.826 186.636 194.214C186.645 194.223 187.919 195.369 189.347 196.145C189.848 196.417 190.041 197.057 189.762 197.562C189.578 197.911 189.221 198.105 188.855 198.105Z" fill="#BAC9D6"/>
<path d="M196.072 201.706C195.946 201.706 195.811 201.677 195.686 201.629C194.866 201.308 194.094 200.881 194.055 200.862C193.554 200.59 193.361 199.95 193.641 199.445C193.911 198.941 194.547 198.747 195.049 199.028C195.059 199.028 195.753 199.406 196.448 199.688C196.979 199.901 197.249 200.503 197.037 201.046C196.882 201.454 196.487 201.706 196.072 201.706Z" fill="#BAC9D6"/>
<path d="M131.54 208.722C131.174 208.722 130.826 208.528 130.633 208.188C130.354 207.683 130.527 207.053 131.029 206.762C132.553 205.898 133.933 204.627 133.943 204.607C134.367 204.219 135.023 204.239 135.409 204.666C135.795 205.093 135.776 205.752 135.351 206.141C135.284 206.199 133.788 207.596 132.042 208.586C131.888 208.683 131.714 208.722 131.54 208.722Z" fill="#BAC9D6"/>
<path d="M123.289 212.953C122.893 212.953 122.527 212.73 122.343 212.351C122.102 211.827 122.324 211.206 122.845 210.964C123.694 210.566 124.688 210.013 124.697 210.003C125.199 209.722 125.836 209.906 126.106 210.41C126.386 210.915 126.203 211.546 125.701 211.827C125.662 211.847 124.63 212.419 123.723 212.846C123.588 212.924 123.434 212.953 123.289 212.953Z" fill="#BAC9D6"/>
<path d="M95.717 214.69H83.5029C82.9337 214.69 82.4609 214.224 82.4609 213.642C82.4609 213.069 82.924 212.594 83.5029 212.594H95.717C96.2863 212.594 96.759 213.06 96.759 213.642C96.759 214.224 96.2863 214.69 95.717 214.69Z" fill="#BAC9D6"/>
<path d="M78.3964 214.69H74.9521C74.3829 214.69 73.9102 214.224 73.9102 213.642C73.9102 213.069 74.3733 212.594 74.9521 212.594H78.3964C78.9656 212.594 79.4384 213.06 79.4384 213.642C79.4384 214.224 78.9656 214.69 78.3964 214.69Z" fill="#BAC9D6"/>
<path d="M64.7257 214.69H62.1787C61.6095 214.69 61.1367 214.224 61.1367 213.642C61.1367 213.069 61.5998 212.594 62.1787 212.594H64.7257C65.2949 212.594 65.7677 213.06 65.7677 213.642C65.758 214.224 65.2949 214.69 64.7257 214.69Z" fill="#BAC9D6"/>
<path d="M42.4505 214.69H41.5146C40.9454 214.69 40.4727 214.224 40.4727 213.642C40.4727 213.069 40.9358 212.594 41.5146 212.594H42.4505C43.0197 212.594 43.4828 213.06 43.4828 213.642C43.4828 214.224 43.0197 214.69 42.4505 214.69Z" fill="#BAC9D6"/>
<path d="M103.62 214.69H101.979C101.41 214.69 100.938 214.224 100.938 213.642C100.938 213.069 101.401 212.594 101.979 212.594H103.61C104.179 212.594 104.652 213.06 104.652 213.642C104.652 214.224 104.189 214.69 103.62 214.69Z" fill="#BAC9D6"/>
<path d="M60.8394 227.266H56.7295C56.1602 227.266 55.6875 226.8 55.6875 226.218C55.6875 225.636 56.1506 225.17 56.7295 225.17H60.8394C61.4087 225.17 61.8814 225.636 61.8814 226.218C61.8814 226.8 61.4183 227.266 60.8394 227.266Z" fill="#BAC9D6"/>
<path d="M267.573 190.012C267.004 190.012 266.531 189.546 266.531 188.974C266.531 188.236 266.589 187.499 266.695 186.781C266.782 186.208 267.303 185.81 267.872 185.907C268.442 185.995 268.827 186.519 268.75 187.091C268.663 187.712 268.615 188.343 268.615 188.974C268.606 189.546 268.142 190.012 267.573 190.012Z" fill="#BAC9D6"/>
<path d="M294.518 187.325C294.036 187.325 293.602 186.985 293.496 186.481C292.328 180.6 287.148 176.33 281.176 176.33C276.091 176.33 271.547 179.378 269.579 184.094C269.357 184.627 268.749 184.88 268.219 184.656C267.688 184.433 267.437 183.822 267.659 183.288C269.945 177.796 275.252 174.244 281.166 174.244C288.132 174.244 294.161 179.222 295.531 186.083C295.638 186.646 295.281 187.199 294.711 187.306C294.654 187.315 294.586 187.325 294.518 187.325Z" fill="#BAC9D6"/>
<path d="M293.68 195.417C293.545 195.417 293.4 195.388 293.265 195.33C292.734 195.107 292.493 194.486 292.725 193.952C293.284 192.632 293.622 191.225 293.709 189.779C293.747 189.207 294.239 188.76 294.809 188.799C295.378 188.838 295.812 189.333 295.773 189.905C295.667 191.594 295.281 193.224 294.625 194.767C294.471 195.175 294.085 195.417 293.68 195.417Z" fill="#BAC9D6"/>
<path d="M290.409 200.075C290.129 200.075 289.849 199.959 289.647 199.745C289.251 199.318 289.28 198.668 289.705 198.27C290.004 197.989 290.293 197.698 290.554 197.407C290.939 196.98 291.595 196.941 292.02 197.329C292.445 197.717 292.483 198.377 292.097 198.804C291.788 199.144 291.46 199.483 291.113 199.813C290.91 199.978 290.66 200.075 290.409 200.075Z" fill="#BAC9D6"/>
<path d="M258.416 194.671C258.117 194.671 257.808 194.651 257.519 194.603C256.95 194.525 256.554 193.991 256.641 193.419C256.718 192.846 257.249 192.439 257.818 192.536C258.011 192.565 258.223 192.575 258.426 192.575C259.005 192.575 259.468 193.04 259.468 193.623C259.458 194.205 258.995 194.671 258.416 194.671Z" fill="#BAC9D6"/>
<path d="M305.249 197.679C304.67 197.679 304.207 197.213 304.207 196.63C304.207 194.699 302.644 193.137 300.733 193.137C300.155 193.137 299.691 192.671 299.691 192.089C299.691 191.507 300.155 191.041 300.733 191.041C303.792 191.041 306.281 193.545 306.281 196.621C306.281 197.213 305.818 197.679 305.249 197.679Z" fill="#BAC9D6"/>
<path d="M302.66 201.784C302.274 201.784 301.898 201.561 301.715 201.182C301.474 200.658 301.695 200.037 302.207 199.795C302.487 199.669 302.747 199.494 302.988 199.28C303.422 198.902 304.078 198.951 304.455 199.387C304.831 199.824 304.783 200.484 304.349 200.862C303.972 201.192 303.548 201.464 303.094 201.677C302.959 201.755 302.805 201.784 302.66 201.784Z" fill="#BAC9D6"/>
<path d="M78.3984 221.727C74.0665 221.727 70.5547 225.259 70.5547 229.616C70.5547 230.382 70.6705 231.13 70.8731 231.828H85.9237C86.1263 231.13 86.2421 230.382 86.2421 229.616C86.2421 225.259 82.7302 221.727 78.3984 221.727Z" fill="#BAC9D6"/>
<path d="M231.122 210.226C223.645 210.226 216.978 213.701 212.627 219.125C209.559 215.855 205.218 213.788 200.384 213.788C199.13 213.788 197.924 213.933 196.747 214.195C193.061 203.308 182.806 195.467 170.736 195.467C157.403 195.467 146.298 205.006 143.79 217.679C142.275 217.058 140.616 216.709 138.869 216.709C131.634 216.709 125.777 222.599 125.777 229.877C125.777 230.537 125.845 231.187 125.941 231.818H254.778C253.621 219.707 243.471 210.226 231.122 210.226Z" fill="#BAC9D6"/>
<path d="M282.836 217.533C276.208 217.533 270.824 222.938 270.824 229.615C270.824 230.372 270.901 231.109 271.036 231.827H294.635C294.77 231.109 294.847 230.372 294.847 229.615C294.847 222.938 289.473 217.533 282.836 217.533Z" fill="#BAC9D6"/>
<path d="M288.39 236.001H35.7423C34.5942 236.001 33.668 235.069 33.668 233.914C33.668 232.76 34.5942 231.828 35.7423 231.828H288.39C289.538 231.828 290.464 232.76 290.464 233.914C290.464 235.069 289.538 236.001 288.39 236.001Z" fill="#BAC9D6"/>
<path d="M22.9025 232.234H20.0275C19.8538 232.234 19.7188 232.098 19.7188 231.924C19.7188 231.749 19.8538 231.613 20.0275 231.613H22.9025C23.0762 231.613 23.2113 231.749 23.2113 231.924C23.2113 232.089 23.0762 232.234 22.9025 232.234Z" fill="#00002C"/>
<path d="M16.8048 232.234H15.3673C15.1937 232.234 15.0586 232.098 15.0586 231.924C15.0586 231.749 15.1937 231.613 15.3673 231.613H16.8048C16.9785 231.613 17.1136 231.749 17.1136 231.924C17.1232 232.089 16.9785 232.234 16.8048 232.234Z" fill="#00002C"/>
<path d="M301.772 232.225H294.633C294.459 232.225 294.324 232.089 294.324 231.914C294.324 231.739 294.459 231.604 294.633 231.604H301.772C301.946 231.604 302.081 231.739 302.081 231.914C302.091 232.079 301.946 232.225 301.772 232.225Z" fill="#00002C"/>
<path d="M271.063 232.225H254.777C254.604 232.225 254.469 232.089 254.469 231.914C254.469 231.739 254.604 231.604 254.777 231.604H271.063C271.237 231.604 271.372 231.739 271.372 231.914C271.372 232.079 271.227 232.225 271.063 232.225Z" fill="#00002C"/>
<path d="M70.8713 232.234H25.2853C25.1116 232.234 24.9766 232.098 24.9766 231.924C24.9766 231.749 25.1116 231.613 25.2853 231.613H70.8713C71.0449 231.613 71.18 231.749 71.18 231.924C71.18 232.089 71.0449 232.234 70.8713 232.234Z" fill="#00002C"/>
<path d="M125.903 232.234H85.922C85.7483 232.234 85.6133 232.098 85.6133 231.924C85.6133 231.749 85.7483 231.613 85.922 231.613H125.903C126.076 231.613 126.211 231.749 126.211 231.924C126.211 232.089 126.076 232.234 125.903 232.234Z" fill="#00002C"/>
<path d="M143.424 226.539C143.269 226.539 143.134 226.422 143.115 226.257C142.999 225.229 142.941 224.171 142.941 223.113C142.941 207.703 155.406 195.156 170.737 195.156C184.35 195.156 196.159 205.345 198.204 218.853C198.233 219.028 198.117 219.183 197.944 219.212C197.77 219.241 197.616 219.125 197.587 218.95C195.58 205.743 184.031 195.777 170.727 195.777C155.744 195.777 143.549 208.033 143.549 223.104C143.549 224.142 143.607 225.18 143.723 226.18C143.742 226.354 143.617 226.51 143.443 226.529C143.443 226.539 143.433 226.539 143.424 226.539Z" fill="#00002C"/>
<path d="M125.922 232.167C125.768 232.167 125.633 232.061 125.613 231.896C125.517 231.245 125.469 230.566 125.469 229.877C125.469 222.444 131.479 216.389 138.87 216.389C140.616 216.389 142.304 216.719 143.906 217.369C144.07 217.437 144.147 217.621 144.079 217.776C144.012 217.941 143.838 218.019 143.674 217.951C142.15 217.33 140.539 217.01 138.87 217.01C131.827 217.01 126.086 222.774 126.086 229.867C126.086 230.518 126.134 231.168 126.221 231.789C126.25 231.964 126.134 232.119 125.961 232.148C125.951 232.167 125.941 232.167 125.922 232.167Z" fill="#00002C"/>
<path d="M271.035 232.215C270.89 232.215 270.755 232.109 270.726 231.963C270.581 231.187 270.504 230.401 270.504 229.615C270.504 222.783 276.032 217.223 282.824 217.223C289.616 217.223 295.144 222.783 295.144 229.615C295.144 230.381 295.077 231.148 294.942 231.885C294.913 232.06 294.749 232.167 294.575 232.138C294.402 232.109 294.295 231.944 294.324 231.769C294.45 231.06 294.517 230.333 294.517 229.615C294.517 223.123 289.269 217.844 282.815 217.844C276.36 217.844 271.112 223.123 271.112 229.615C271.112 230.362 271.179 231.109 271.324 231.847C271.353 232.021 271.247 232.176 271.073 232.215C271.073 232.215 271.054 232.215 271.035 232.215Z" fill="#00002C"/>
<path d="M216.389 225.791C216.254 225.791 216.138 225.704 216.09 225.577C213.871 218.717 207.562 214.117 200.384 214.117C199.178 214.117 197.981 214.253 196.804 214.505C196.64 214.544 196.476 214.437 196.438 214.263C196.399 214.088 196.505 213.923 196.679 213.884C197.894 213.612 199.139 213.477 200.384 213.477C207.832 213.477 214.383 218.261 216.688 225.374C216.737 225.539 216.65 225.713 216.486 225.771C216.447 225.781 216.418 225.791 216.389 225.791Z" fill="#00002C"/>
<path d="M254.789 232.225C254.625 232.225 254.49 232.099 254.48 231.944C253.361 219.746 243.318 210.547 231.123 210.547C224.012 210.547 217.375 213.73 212.888 219.3C212.782 219.436 212.58 219.455 212.444 219.348C212.309 219.242 212.29 219.047 212.396 218.912C216.998 213.206 223.819 209.926 231.113 209.926C243.636 209.926 253.94 219.368 255.098 231.896C255.107 232.07 254.991 232.216 254.818 232.235C254.808 232.225 254.798 232.225 254.789 232.225Z" fill="#00002C"/>
<path d="M150.156 233.206C149.76 233.206 149.374 232.973 149.21 232.585C148.834 231.74 148.506 230.857 148.236 229.974C148.062 229.421 148.371 228.839 148.921 228.664C149.471 228.499 150.05 228.8 150.223 229.353C150.474 230.149 150.773 230.954 151.111 231.721C151.343 232.245 151.111 232.866 150.59 233.099C150.445 233.186 150.291 233.206 150.156 233.206Z" fill="white"/>
<path d="M148.218 224.035C147.649 224.035 147.176 223.569 147.176 222.987C147.176 210.003 157.682 199.436 170.591 199.436C177.557 199.436 184.108 202.521 188.575 207.907C188.941 208.353 188.883 209.013 188.44 209.382C187.996 209.751 187.349 209.693 186.973 209.246C182.902 204.336 176.93 201.522 170.581 201.522C158.821 201.522 149.25 211.148 149.25 222.977C149.26 223.569 148.797 224.035 148.218 224.035Z" fill="white"/>
<path d="M192.068 217.698C191.615 217.698 191.2 217.397 191.074 216.951C190.66 215.505 190.081 214.108 189.367 212.788C189.097 212.284 189.28 211.643 189.782 211.371C190.283 211.1 190.92 211.284 191.19 211.789C191.972 213.244 192.608 214.777 193.062 216.359C193.226 216.912 192.907 217.495 192.358 217.65C192.261 217.689 192.165 217.698 192.068 217.698Z" fill="white"/>
<path d="M192.963 224.035C192.384 224.035 191.921 223.57 191.921 222.987C191.921 222.376 191.892 221.745 191.844 221.124C191.795 220.552 192.22 220.047 192.789 219.999C193.358 219.96 193.86 220.377 193.908 220.95C193.966 221.639 193.995 222.328 193.995 222.987C194.005 223.57 193.542 224.035 192.963 224.035Z" fill="white"/>
<path d="M245.93 222.958C245.631 222.958 245.342 222.832 245.139 222.589C241.608 218.378 236.446 215.961 230.976 215.961C226.808 215.961 222.862 217.32 219.592 219.901C219.138 220.26 218.482 220.173 218.135 219.717C217.778 219.261 217.865 218.601 218.318 218.251C221.965 215.389 226.345 213.875 230.986 213.875C237.064 213.875 242.804 216.563 246.731 221.24C247.097 221.677 247.049 222.337 246.605 222.715C246.403 222.88 246.162 222.958 245.93 222.958Z" fill="white"/>
<path d="M249.541 229.441C249.106 229.441 248.701 229.169 248.556 228.723C248.228 227.733 247.814 226.762 247.322 225.831C247.051 225.326 247.244 224.686 247.746 224.424C248.257 224.152 248.884 224.346 249.155 224.851C249.695 225.879 250.158 226.957 250.525 228.063C250.708 228.606 250.409 229.198 249.869 229.383C249.762 229.421 249.647 229.441 249.541 229.441Z" fill="white"/>
<path d="M250.484 234.291C249.944 234.291 249.49 233.864 249.452 233.311C249.423 232.933 249.394 232.554 249.345 232.176C249.268 231.603 249.673 231.079 250.243 231.002C250.812 230.924 251.333 231.332 251.41 231.904C251.458 232.321 251.506 232.739 251.535 233.166C251.574 233.738 251.14 234.233 250.561 234.272C250.522 234.291 250.503 234.291 250.484 234.291Z" fill="white"/>
<path d="M70.8711 232.139C70.7361 232.139 70.6106 232.052 70.572 231.916C70.3501 231.149 70.2344 230.373 70.2344 229.616C70.2344 225.094 73.8909 221.416 78.3868 221.416C82.8827 221.416 86.5392 225.094 86.5392 229.616C86.5392 230.382 86.4234 231.159 86.2112 231.916C86.1629 232.081 85.9893 232.178 85.8253 232.129C85.6612 232.081 85.5648 231.906 85.613 231.741C85.8156 231.033 85.9217 230.324 85.9217 229.616C85.9217 225.433 82.545 222.037 78.3868 222.037C74.2382 222.037 70.8518 225.433 70.8518 229.616C70.8518 230.315 70.958 231.033 71.1606 231.741C71.2088 231.906 71.1123 232.081 70.9483 232.129C70.929 232.139 70.9001 232.139 70.8711 232.139Z" fill="#00002C"/>
<path d="M207.891 221.734C207.669 221.734 207.438 221.657 207.245 221.511C205.122 219.823 202.575 218.93 199.854 218.93C199.285 218.93 198.812 218.464 198.812 217.882C198.812 217.3 199.276 216.834 199.854 216.834C203.038 216.834 206.039 217.882 208.528 219.862C208.981 220.221 209.058 220.871 208.702 221.327C208.499 221.599 208.2 221.734 207.891 221.734Z" fill="white"/>
<path d="M212.066 227.568C211.641 227.568 211.236 227.306 211.091 226.879C210.773 225.976 210.339 225.122 209.818 224.326C209.499 223.841 209.634 223.201 210.107 222.881C210.589 222.56 211.226 222.696 211.545 223.181C212.162 224.113 212.664 225.122 213.04 226.18C213.233 226.723 212.953 227.325 212.413 227.519C212.297 227.548 212.181 227.568 212.066 227.568Z" fill="white"/>
<path d="M275.281 228.518C275.184 228.518 275.088 228.508 274.991 228.479C274.441 228.324 274.123 227.741 274.277 227.188C274.499 226.402 274.827 225.645 275.271 224.937C275.57 224.442 276.216 224.297 276.699 224.597C277.181 224.898 277.336 225.548 277.036 226.034C276.699 226.567 276.448 227.15 276.274 227.751C276.149 228.217 275.734 228.518 275.281 228.518Z" fill="white"/>
<path d="M290.699 230.702C290.13 230.702 289.657 230.236 289.657 229.654C289.657 225.869 286.599 222.784 282.836 222.784C281.582 222.784 280.366 223.123 279.295 223.773C278.803 224.074 278.166 223.909 277.867 223.424C277.568 222.929 277.723 222.289 278.215 221.988C279.604 221.144 281.196 220.697 282.826 220.697C287.737 220.697 291.731 224.715 291.731 229.654C291.741 230.236 291.278 230.702 290.699 230.702Z" fill="white"/>
<path d="M82.1888 230.751C81.6195 230.751 81.1468 230.285 81.1468 229.703C81.1468 228.344 80.1434 227.16 78.8024 226.957C78.2332 226.869 77.8472 226.336 77.9341 225.773C78.0209 225.2 78.5515 224.802 79.1111 224.899C81.4555 225.258 83.2211 227.325 83.2211 229.712C83.2307 230.285 82.7676 230.751 82.1888 230.751Z" fill="white"/>
<path d="M129.78 231.964C129.211 231.964 128.738 231.498 128.738 230.916C128.738 230.353 128.777 229.79 128.864 229.237C128.951 228.664 129.472 228.266 130.041 228.354C130.61 228.441 131.006 228.965 130.919 229.538C130.851 229.994 130.822 230.46 130.822 230.916C130.822 231.498 130.359 231.964 129.78 231.964Z" fill="white"/>
<path d="M131.131 226.84C130.957 226.84 130.783 226.792 130.619 226.705C130.118 226.413 129.954 225.773 130.233 225.278C132.25 221.746 136.003 219.553 140.045 219.553C140.615 219.553 141.087 220.019 141.087 220.601C141.087 221.173 140.624 221.649 140.045 221.649C136.746 221.649 133.678 223.444 132.038 226.326C131.845 226.656 131.497 226.84 131.131 226.84Z" fill="white"/>
<path d="M176.394 120.446C176.394 138.059 163.109 151.082 163.109 151.082C163.109 151.082 149.824 139.291 149.824 120.446C149.824 113.062 155.777 107.074 163.109 107.074C170.442 107.074 176.394 113.062 176.394 120.446Z" fill="white"/>
<path d="M174.282 118.331C174.282 133.159 163.1 144.114 163.1 144.114C163.1 144.114 151.918 133.081 151.918 118.331C151.918 112.12 156.925 107.084 163.1 107.084C169.274 107.074 174.282 112.12 174.282 118.331Z" fill="#FFC500"/>
<path d="M166.59 117.534C166.59 122.173 163.098 125.598 163.098 125.598C163.098 125.598 159.605 122.493 159.605 117.534C159.605 115.594 161.168 114.021 163.098 114.021C165.028 114.021 166.59 115.594 166.59 117.534Z" fill="#FF7900"/>
<path d="M163.1 151.402C163.022 151.402 162.945 151.373 162.878 151.315C162.743 151.188 149.496 138.204 149.496 120.446C149.496 112.906 155.594 106.764 163.1 106.764C170.596 106.764 176.703 112.906 176.703 120.446C176.703 137.991 163.447 151.179 163.321 151.315C163.254 151.373 163.177 151.402 163.1 151.402ZM163.1 107.394C155.941 107.394 150.123 113.246 150.123 120.446C150.123 136.681 161.382 148.879 163.1 150.645C164.807 148.859 176.085 136.497 176.085 120.446C176.076 113.246 170.258 107.394 163.1 107.394Z" fill="#00002C"/>
<path d="M193.827 52.2168C217.3 83.5411 211.695 114.788 207.672 116.486C202.983 118.466 196.914 105.055 178.169 99.3586C154.358 92.1097 193.827 52.2168 193.827 52.2168Z" fill="white"/>
<path d="M193.654 59.7852C186.244 67.5871 171.676 85.2677 172.197 95.5054C173.413 97.1648 175.333 98.4845 178.169 99.3481C196.925 105.054 202.983 118.455 207.672 116.476C208.039 116.32 208.415 115.913 208.791 115.292C208.917 114.7 209.033 114.059 209.148 113.341C211.117 100.464 208.029 79.785 193.654 59.7852Z" fill="#FF0036"/>
<path d="M132.37 52.2168C108.897 83.5411 114.503 114.788 118.526 116.486C123.215 118.466 129.273 105.055 148.029 99.3586C171.84 92.1097 132.37 52.2168 132.37 52.2168Z" fill="white"/>
<path d="M148.028 99.3481C150.854 98.4845 152.784 97.1648 154 95.5054C154.53 85.2677 139.952 67.5871 132.553 59.7852C118.187 79.7947 115.09 100.474 117.058 113.351C117.174 114.059 117.29 114.709 117.415 115.301C117.782 115.932 118.168 116.33 118.534 116.485C123.213 118.455 129.272 105.054 148.028 99.3481Z" fill="#FF0036"/>
<path d="M206.698 116.99C204.797 116.99 202.694 115.136 199.771 112.574C195.371 108.712 188.714 102.88 178.082 99.639C173.914 98.3775 171.387 96.0292 170.538 92.6619C167.103 78.9696 192.525 53.0795 193.606 51.983C193.673 51.915 193.76 51.8762 193.847 51.8956C193.934 51.9053 194.02 51.9441 194.078 52.0218C212.959 77.2229 213.007 102.298 210.383 112.041C209.669 114.69 208.753 116.369 207.788 116.776C207.45 116.922 207.084 116.99 206.698 116.99ZM193.799 52.6913C191.107 55.4764 167.971 79.8721 171.145 92.5163C171.937 95.6507 174.329 97.8535 178.266 99.0471C189.023 102.317 195.738 108.208 200.185 112.109C203.504 115.02 205.752 116.961 207.556 116.194C208.145 115.942 209.042 114.68 209.795 111.876C212.371 102.279 212.322 77.6014 193.799 52.6913Z" fill="#00002C"/>
<path d="M119.5 116.99C119.123 116.99 118.747 116.912 118.4 116.767C117.435 116.359 116.519 114.68 115.805 112.031C113.19 102.298 113.229 77.2233 132.119 52.0124C132.177 51.9348 132.254 51.896 132.351 51.8863C132.438 51.8765 132.534 51.9154 132.592 51.9736C133.672 53.0701 159.094 78.9603 155.66 92.6525C154.82 96.0198 152.273 98.3682 148.115 99.6297C137.483 102.861 130.826 108.703 126.427 112.565C123.504 115.146 121.4 116.99 119.5 116.99ZM132.399 52.6917C113.875 77.6017 113.827 102.279 116.412 111.876C117.165 114.68 118.062 115.942 118.641 116.194C118.921 116.311 119.201 116.369 119.5 116.369C121.169 116.369 123.205 114.583 126.022 112.119C130.46 108.227 137.175 102.327 147.942 99.0571C151.878 97.8635 154.271 95.6608 155.062 92.5264C158.226 79.8724 135.1 55.4767 132.399 52.6917Z" fill="#00002C"/>
<path d="M144.431 104.832C145.752 106.85 152.863 108.956 163.263 108.956C173.663 108.956 180.562 106.889 182.096 104.832C189.785 94.4485 195.776 76.8747 195.776 62.5905C195.776 28.19 165.974 0.310547 163.099 0.310547C160.224 0.310547 130.422 28.19 130.422 62.5905C130.422 76.8165 136.346 94.7785 144.431 104.832Z" fill="white"/>
<path d="M163.071 67.5781C156.144 67.5781 155.44 99.4944 149.207 103.327H163.071V67.5781Z" fill="#A2D3E5"/>
<path d="M150.68 102.046C143.859 101.386 141.216 99.6781 140.184 98.5039C141.515 100.833 142.933 102.977 144.429 104.841C145.75 106.859 152.861 108.965 163.261 108.965C173.662 108.965 180.56 106.898 182.094 104.841C183.435 103.026 184.728 100.978 185.943 98.7756C182.576 100.998 177.443 102.182 171.057 102.531C163.927 102.919 161.438 103.074 150.68 102.046Z" fill="#FF0036"/>
<path d="M169.824 107.598C173.953 107.152 175.787 103.619 178.112 103.037C180.427 102.455 176.568 106.288 178.99 105.376L179.019 105.774L174.581 107.491L169.824 107.598Z" fill="white"/>
<path d="M183.679 99.9802C182.984 101.222 182.27 102.416 181.537 103.512C180.051 105.715 173.356 107.947 163.264 107.947C153.172 107.947 146.264 105.686 144.981 103.512C144.258 102.513 143.553 101.436 142.878 100.3C141.904 99.8734 141.209 99.427 140.727 99.0195C141.981 101.319 143.631 103.435 144.981 105.308C145.039 105.405 145.116 105.502 145.203 105.599C147.596 107.355 154.176 108.966 163.274 108.966C172.439 108.966 178.884 107.355 181.334 105.57C181.411 105.482 181.489 105.395 181.547 105.308C182.81 103.406 184.393 101.29 185.56 99.0098C184.971 99.3591 184.354 99.6793 183.679 99.9802Z" fill="white"/>
<path d="M163.177 24.9204C153.018 24.9204 144.441 23.0767 144.441 20.8933L144.383 20.7768L144.441 20.6216C152.468 8.47224 161.614 0.417969 163.177 0.417969C164.73 0.417969 173.886 8.47224 181.913 20.641L181.98 20.7477L181.923 20.8642C181.913 23.0767 173.326 24.9204 163.177 24.9204Z" fill="#FF0036"/>
<path d="M180.858 24.5034C171.577 12.5578 166.83 9.50106 167.805 12.2861C169.821 18.0696 171.384 21.8639 172.069 26.2016C173.96 26.1142 177.154 25.7649 180.858 24.5034Z" fill="white"/>
<path d="M145.849 22.3974C153.548 11.5969 161.71 4.59067 163.177 4.59067C164.643 4.59067 172.805 11.5969 180.495 22.3877C181.411 21.9122 181.923 21.3979 181.923 20.8545L181.98 20.738L181.913 20.6313C173.886 8.47225 164.73 0.417969 163.177 0.417969C161.623 0.417969 152.468 8.47224 144.441 20.641L144.383 20.7963L144.441 20.9127C144.441 21.427 144.942 21.9316 145.849 22.3974Z" fill="white"/>
<path d="M163.261 109.276C152.552 109.276 145.548 107.132 144.168 105.006C136.025 94.8755 130.102 77.0202 130.102 62.5905C130.102 28.7528 159.498 0 163.097 0C166.686 0 196.083 28.7528 196.083 62.5905C196.083 76.4186 190.304 94.2544 182.345 105.016C180.82 107.073 174.202 109.276 163.261 109.276ZM163.097 0.630756C160.627 0.630756 130.729 27.9377 130.729 62.5905C130.729 76.6612 136.72 94.7396 144.67 104.638C145.972 106.617 153.266 108.645 163.261 108.645C173.507 108.645 180.367 106.637 181.843 104.647C189.744 93.9827 195.466 76.3021 195.466 62.5905C195.466 27.9377 165.557 0.630756 163.097 0.630756Z" fill="#00002C"/>
<path d="M163.098 103.153C151.907 103.153 142.23 101.387 140.088 98.9508C139.972 98.8247 139.982 98.6209 140.117 98.5044C140.252 98.388 140.445 98.3977 140.561 98.5336C142.558 100.804 152.244 102.522 163.108 102.522C167.179 102.522 171.183 102.289 174.675 101.843C174.849 101.823 175.003 101.94 175.023 102.114C175.042 102.289 174.926 102.444 174.753 102.464C171.231 102.91 167.198 103.153 163.098 103.153Z" fill="#00002C"/>
<path d="M175.891 102.309C175.737 102.309 175.602 102.193 175.582 102.038C175.553 101.863 175.679 101.708 175.843 101.679C176.489 101.582 177.116 101.485 177.714 101.378C177.888 101.349 178.042 101.455 178.081 101.63C178.11 101.805 177.994 101.96 177.83 101.989C177.222 102.096 176.595 102.203 175.93 102.3C175.92 102.309 175.91 102.309 175.891 102.309Z" fill="#00002C"/>
<path d="M179.211 101.716C179.066 101.716 178.941 101.619 178.902 101.473C178.863 101.299 178.979 101.134 179.143 101.105C179.384 101.056 179.626 100.998 179.847 100.949C180.011 100.911 180.185 101.017 180.224 101.182C180.262 101.347 180.156 101.522 179.992 101.561C179.761 101.619 179.519 101.667 179.269 101.726C179.259 101.716 179.23 101.716 179.211 101.716Z" fill="#00002C"/>
<path d="M182.984 100.669C182.859 100.669 182.743 100.592 182.695 100.466C182.637 100.301 182.714 100.126 182.878 100.068C184.422 99.4953 185.406 98.9518 185.792 98.4472C185.898 98.3114 186.091 98.2823 186.226 98.389C186.361 98.4958 186.38 98.6898 186.284 98.8257C185.821 99.437 184.769 100.029 183.09 100.65C183.062 100.66 183.023 100.669 182.984 100.669Z" fill="#00002C"/>
<path d="M163.1 25.337C153.819 25.337 143.949 23.7844 143.949 20.9023C143.949 20.7277 144.084 20.5918 144.258 20.5918C144.432 20.5918 144.567 20.7277 144.567 20.9023C144.567 22.7073 152.169 24.716 163.091 24.716C166.12 24.716 169.12 24.551 171.774 24.2502C171.947 24.2308 172.102 24.3569 172.121 24.5316C172.14 24.7063 172.015 24.8615 171.841 24.8809C169.178 25.1721 166.149 25.337 163.1 25.337Z" fill="#00002C"/>
<path d="M173.317 24.6769C173.162 24.6769 173.027 24.5605 173.008 24.4052C172.979 24.2305 173.105 24.0753 173.278 24.0558C173.751 23.9879 174.214 23.92 174.658 23.8424C174.832 23.8132 174.986 23.9297 175.015 24.0947C175.044 24.2693 174.928 24.4246 174.764 24.4537C174.311 24.5313 173.847 24.5993 173.365 24.6672C173.346 24.6769 173.336 24.6769 173.317 24.6769Z" fill="#00002C"/>
<path d="M176.066 24.23C175.921 24.23 175.786 24.1232 175.757 23.9777C175.719 23.803 175.835 23.638 175.999 23.6089C176.163 23.5798 176.327 23.541 176.491 23.5119C176.655 23.473 176.828 23.5798 176.857 23.7545C176.896 23.9194 176.78 24.0941 176.616 24.1232C176.452 24.162 176.288 24.1911 176.114 24.23C176.105 24.23 176.085 24.23 176.066 24.23Z" fill="#00002C"/>
<path d="M179.414 23.2798C179.289 23.2798 179.173 23.2022 179.125 23.076C179.067 22.911 179.144 22.7364 179.308 22.6684C180.803 22.1056 181.623 21.4749 181.623 20.9023C181.623 20.7277 181.758 20.5918 181.932 20.5918C182.106 20.5918 182.241 20.7277 182.241 20.9023C182.241 21.7854 181.324 22.5714 179.52 23.2604C179.491 23.2701 179.453 23.2798 179.414 23.2798Z" fill="#00002C"/>
<path d="M193.51 71.6543H193.471C189.197 92.1296 178.247 99.6502 172.699 100.786V100.815C173.297 100.756 173.886 100.698 174.436 100.63C182.965 99.6793 185.55 96.1179 187.364 92.4207C190.258 86.0064 192.439 78.68 193.51 71.6543Z" fill="#A2D3E5"/>
<path d="M178.744 43.6287C178.329 43.6287 177.934 43.3764 177.779 42.9592C177.644 42.6001 177.49 42.2508 177.326 41.9111C177.075 41.3871 177.297 40.7661 177.818 40.5138C178.339 40.2712 178.956 40.4847 179.207 41.0087C179.4 41.4065 179.564 41.8044 179.719 42.212C179.921 42.7554 179.651 43.357 179.12 43.5608C178.995 43.6093 178.87 43.6287 178.744 43.6287Z" fill="#A2D3E5"/>
<path d="M179.866 49.7138C179.288 49.7138 178.825 49.248 178.825 48.6755C178.825 47.7342 178.738 46.7929 178.574 45.871C178.477 45.3082 178.853 44.7648 179.413 44.6581C179.982 44.561 180.523 44.9298 180.619 45.5023C180.802 46.5406 180.899 47.5983 180.899 48.6755C180.908 49.248 180.445 49.7138 179.866 49.7138Z" fill="#A2D3E5"/>
<path d="M163.098 66.5882C159.693 66.5882 156.384 65.6178 153.528 63.7838C153.045 63.4732 152.901 62.8231 153.209 62.3379C153.518 61.8527 154.165 61.7071 154.647 62.0177C157.165 63.6382 160.088 64.4922 163.098 64.4922C170.894 64.4922 177.435 58.8736 178.641 51.1395C178.728 50.567 179.259 50.1788 179.828 50.2662C180.397 50.3535 180.783 50.8872 180.686 51.4598C179.326 60.2224 171.926 66.5882 163.098 66.5882Z" fill="#A2D3E5"/>
<path d="M149.735 59.9124C149.426 59.9124 149.108 59.7668 148.905 59.5048C146.532 56.3607 145.277 52.6247 145.277 48.6752C145.277 38.7966 153.266 30.7617 163.087 30.7617C163.656 30.7617 164.12 31.2275 164.12 31.8097C164.12 32.3823 163.656 32.8578 163.087 32.8578C154.414 32.8578 147.352 39.9611 147.352 48.6849C147.352 52.1686 148.461 55.4777 150.555 58.253C150.902 58.7091 150.815 59.369 150.352 59.7183C150.178 59.8444 149.957 59.9124 149.735 59.9124Z" fill="#A2D3E5"/>
<path d="M170.844 34.7492C170.68 34.7492 170.516 34.7104 170.362 34.6327C169.204 34.0214 167.969 33.5653 166.696 33.2645C166.136 33.1286 165.789 32.5658 165.924 32.0127C166.059 31.4498 166.609 31.1005 167.168 31.2364C168.606 31.576 170.005 32.1 171.317 32.789C171.828 33.051 172.021 33.6817 171.761 34.1961C171.577 34.5454 171.211 34.7492 170.844 34.7492Z" fill="#A2D3E5"/>
<path d="M163.097 35.1191C155.659 35.1191 149.629 41.1841 149.629 48.6756C149.629 56.1573 155.659 62.2223 163.097 62.2223C170.536 62.2223 176.575 56.1573 176.575 48.6756C176.575 41.1841 170.536 35.1191 163.097 35.1191Z" fill="#7977FF"/>
<path d="M163.097 34.5859C155.359 34.5859 149.098 40.8935 149.098 48.6664C149.098 56.4392 155.369 62.7468 163.097 62.7468C170.834 62.7468 177.096 56.4392 177.096 48.6664C177.105 40.8935 170.834 34.5859 163.097 34.5859ZM156.044 57.691C155.301 57.691 154.703 57.0894 154.703 56.3422C154.703 55.595 155.301 54.9933 156.044 54.9933C156.787 54.9933 157.385 55.595 157.385 56.3422C157.385 57.0894 156.787 57.691 156.044 57.691ZM165.933 54.4693C161.321 54.4693 157.578 50.7042 157.578 46.0657C157.578 41.4272 161.321 37.6621 165.933 37.6621C170.554 37.6621 174.288 41.4272 174.288 46.0657C174.298 50.7042 170.554 54.4693 165.933 54.4693Z" fill="#00002C"/>
<path d="M177.5 42.9701C177.375 42.9701 177.259 42.8925 177.211 42.7761C177.086 42.4849 176.96 42.1938 176.825 41.9124C176.748 41.7572 176.815 41.5728 176.97 41.4951C177.124 41.4175 177.307 41.4854 177.385 41.6407C177.529 41.9318 177.664 42.2326 177.79 42.5335C177.857 42.6887 177.78 42.8731 177.626 42.941C177.578 42.9604 177.539 42.9701 177.5 42.9701Z" fill="#00002C"/>
<path d="M163.098 64.6672C159.499 64.6672 156.103 63.4931 153.276 61.2611C153.141 61.1544 153.122 60.9603 153.228 60.8245C153.334 60.6886 153.527 60.6595 153.662 60.7759C156.373 62.9205 159.634 64.0462 163.098 64.0462C171.521 64.0462 178.38 57.1564 178.38 48.6751C178.38 47.1128 178.149 45.5796 177.695 44.0949C177.647 43.9299 177.734 43.7552 177.898 43.7067C178.062 43.6582 178.235 43.7455 178.284 43.9105C178.756 45.4534 178.998 47.0546 178.998 48.6751C178.998 57.4863 171.868 64.6672 163.098 64.6672Z" fill="#00002C"/>
<path d="M151.597 59.5732C151.51 59.5732 151.423 59.5441 151.365 59.4762C148.673 56.5165 147.188 52.6834 147.188 48.6757C147.188 39.8548 154.327 32.6836 163.087 32.6836C164.255 32.6836 165.412 32.8097 166.541 33.0621C166.715 33.1009 166.811 33.2658 166.782 33.4405C166.744 33.6055 166.58 33.7219 166.416 33.6831C165.325 33.4405 164.206 33.3144 163.087 33.3144C154.665 33.3144 147.805 40.2139 147.805 48.6854C147.805 52.5379 149.233 56.2254 151.818 59.0686C151.934 59.1948 151.925 59.3986 151.799 59.515C151.751 59.5538 151.674 59.5732 151.597 59.5732Z" fill="#00002C"/>
<path d="M169.551 34.7022C169.503 34.7022 169.464 34.6925 169.426 34.6731C169.02 34.4887 168.606 34.3237 168.133 34.1491C167.969 34.0908 167.882 33.9162 167.94 33.7512C167.998 33.5862 168.171 33.4989 168.345 33.5571C168.827 33.7318 169.271 33.9065 169.686 34.1005C169.84 34.1685 169.908 34.3625 169.84 34.5178C169.773 34.6343 169.667 34.7022 169.551 34.7022Z" fill="#00002C"/>
<path d="M171.818 35.9825C171.76 35.9825 171.692 35.9631 171.644 35.934C171.499 35.8369 171.355 35.7496 171.22 35.6526C171.075 35.5652 171.027 35.3711 171.114 35.2159C171.21 35.0703 171.403 35.0218 171.548 35.1188C171.702 35.2159 171.847 35.3129 171.992 35.41C172.136 35.507 172.175 35.7011 172.078 35.8466C172.011 35.934 171.914 35.9825 171.818 35.9825Z" fill="#00002C"/>
<path d="M173.012 44.8048C173.229 41.7256 170.924 39.0519 167.862 38.8331C164.801 38.6143 162.143 40.9331 161.925 44.0124C161.708 47.0916 164.013 49.7653 167.075 49.9841C170.136 50.203 172.794 47.8841 173.012 44.8048Z" fill="white"/>
<path d="M134.243 61.3097C134.243 36.6132 146.795 27.3168 156.394 26.6084C155.121 26.5114 153.944 26.3949 152.902 26.2591C152.468 26.2397 151.927 26.1718 151.271 26.0165C151.252 26.0165 151.233 26.0068 151.213 26.0068C150.635 25.9097 150.104 25.803 149.602 25.6866C144.325 24.8035 142.637 26.5502 140.167 31.0722C135.536 40.2619 132.062 51.0527 132.062 62.6004C132.062 71.9938 134.783 83.1727 138.97 92.4206C140.784 96.1275 143.37 99.6792 151.898 100.63C152.873 100.747 153.944 100.853 155.073 100.941C143.235 96.9232 134.243 83.9588 134.243 61.3097Z" fill="#A2D3E5"/>
<path d="M168.733 92.2647C168.733 105.744 166.195 116.68 163.06 116.68C159.934 116.68 157.387 105.744 157.387 92.2647C157.387 78.786 159.924 67.8496 163.06 67.8496C166.195 67.8496 168.733 78.786 168.733 92.2647Z" fill="white"/>
<path d="M167.051 96.0977C167.051 107.471 165.266 116.68 163.057 116.68C160.857 116.68 159.062 107.461 159.062 96.0977C159.062 84.7344 160.857 75.5156 163.057 75.5156C165.266 75.5059 167.051 84.7247 167.051 96.0977Z" fill="#FF0036"/>
<path d="M163.068 116.99C159.324 116.99 157.086 104.424 157.086 92.2647C157.086 80.1057 159.324 67.5391 163.068 67.5391C166.811 67.5391 169.049 80.1154 169.049 92.2647C169.049 104.424 166.811 116.99 163.068 116.99ZM163.068 68.1601C160.482 68.1601 157.713 77.8447 157.713 92.2647C157.713 106.685 160.482 116.369 163.068 116.369C165.663 116.369 168.432 106.685 168.432 92.2647C168.422 77.8447 165.653 68.1601 163.068 68.1601Z" fill="#00002C"/>
</g>
<defs>
<clipPath id="clip0_1021_18428">
<rect width="326" height="236" fill="white"/>
</clipPath>
</defs>
</svg>
